<svg xmlns="http://www.w3.org/2000/svg" width="290" height="540" viewBox="0 0 290 540">
<rect width="290" height="540" fill="#F6F7F9"/>
<style>
  .name { font-family: Pretendard, Arial, sans-serif; font-size: 18px; font-weight: 800; fill: #15172E; }
</style>
<text x="20" y="34" class="name">등록1</text>
<g transform="translate(20 54)">
<rect x="0" y="0" width="250" height="470" rx="28" fill="#FFFFFF"/>
<rect x="81" y="28" width="88" height="5" rx="2.5" fill="#6D7483"/>
<rect x="20" y="82" width="210" height="40" rx="14" fill="#F8F9FB" stroke="#EAEDF2"/>
<g transform="translate(20 168)">
  <rect x="0" y="0" width="62" height="74" rx="14" fill="#F4F6F9" stroke="#EAEDF2"/>
  <path d="M24 35 h14 M31 28 v14" stroke="#9AA0AD" stroke-width="2" stroke-linecap="round"/>
  <rect x="74" y="0" width="62" height="74" rx="14" fill="#F4F6F9" stroke="#EAEDF2"/>
  <path d="M98 35 h14 M105 28 v14" stroke="#9AA0AD" stroke-width="2" stroke-linecap="round"/>
  <rect x="148" y="0" width="62" height="74" rx="14" fill="#F4F6F9" stroke="#EAEDF2"/>
  <path d="M172 35 h14 M179 28 v14" stroke="#9AA0AD" stroke-width="2" stroke-linecap="round"/>
</g>
<rect x="86" y="264" width="42" height="30" rx="10" fill="#15172E"/>
<rect x="138" y="264" width="42" height="30" rx="10" fill="#F3F4F7"/>
<rect x="190" y="264" width="42" height="30" rx="10" fill="#F3F4F7"/>
<rect x="20" y="322" width="128" height="9" rx="4.5" fill="#ECEFF4"/>
<rect x="28" y="360" width="82" height="46" rx="16" fill="#F3F4F7"/>
<rect x="122" y="360" width="106" height="46" rx="16" fill="#15172E"/>
</g>
</svg>
