<svg xmlns="http://www.w3.org/2000/svg" width="290" height="540" viewBox="0 0 290 540">
<rect width="290" height="540" fill="#F6F7F9"/>
<style>
  .name { font-family: Pretendard, Arial, sans-serif; font-size: 18px; font-weight: 800; fill: #15172E; }
</style>
<text x="20" y="34" class="name">흔적</text>
<g transform="translate(20 54)">
<rect x="0" y="0" width="250" height="470" rx="28" fill="#FFFFFF"/>
<rect x="81" y="28" width="88" height="5" rx="2.5" fill="#6D7483"/>
<rect x="20" y="58" width="210" height="132" rx="18" fill="#FFFFFF" stroke="#EAEDF2"/>
<rect x="38" y="76" width="78" height="96" rx="14" fill="#E7EAF0"/>
<path d="M38 148 C60 126 78 138 96 112 C110 94 116 104 116 96 L116 172 L38 172Z" fill="#C8CFDA"/>
<rect x="132" y="90" width="74" height="12" rx="6" fill="#DDE1E8"/>
<rect x="132" y="116" width="62" height="9" rx="4.5" fill="#ECEFF4"/>
<rect x="132" y="146" width="78" height="9" rx="4.5" fill="#ECEFF4"/>
<rect x="20" y="206" width="70" height="30" rx="15" fill="#15172E"/>
<rect x="98" y="206" width="58" height="30" rx="15" fill="#F3F4F7"/>
<line x1="20" y1="274" x2="230" y2="274" stroke="#F0F2F5"/>
<rect x="20" y="300" width="104" height="9" rx="4.5" fill="#ECEFF4"/>
<rect x="55" y="360" width="140" height="46" rx="16" fill="#15172E"/>
</g>
</svg>
