<svg xmlns="http://www.w3.org/2000/svg" width="290" height="540" viewBox="0 0 290 540">
<rect width="290" height="540" fill="#F6F7F9"/>
<style>
  .name { font-family: Pretendard, Arial, sans-serif; font-size: 18px; font-weight: 800; fill: #15172E; }
</style>
<text x="20" y="34" class="name">등록2</text>
<g transform="translate(20 54)">
<rect x="0" y="0" width="250" height="470" rx="28" fill="#FFFFFF"/>
<rect x="81" y="28" width="88" height="5" rx="2.5" fill="#6D7483"/>
<rect x="20" y="58" width="210" height="98" rx="18" fill="#F8F9FB" stroke="#EAEDF2"/>
<rect x="38" y="76" width="174" height="62" rx="14" fill="#E7EAF0"/>
<path d="M38 122 C84 98 122 110 154 84 C180 64 198 78 212 72 L212 138 L38 138Z" fill="#C8CFDA"/>
<rect x="20" y="200" width="128" height="12" rx="6" fill="#DDE1E8"/>
<rect x="20" y="226" width="84" height="9" rx="4.5" fill="#ECEFF4"/>
<rect x="20" y="258" width="210" height="10" rx="5" fill="#EEF0F4"/>
<rect x="20" y="258" width="126" height="10" rx="5" fill="#15172E"/>
<rect x="20" y="310" width="98" height="42" rx="16" fill="#F3F4F7"/>
<rect x="132" y="310" width="98" height="42" rx="16" fill="#15172E"/>
<rect x="20" y="392" width="168" height="9" rx="4.5" fill="#ECEFF4"/>
</g>
</svg>
